<svg fill="#5586A4" width="48" height="20" role="img" viewBox="0 0 58 24" xmlns="http://www.w3.org/2000/svg"><title>OpenGL</title><path d="M8.747 16.536c3.185 2.888 9.319 4.845 16.363 4.846 5.731 0 10.866-1.161 14.293-3.197-3.752 3.41-10.444 5.815-18.086 5.815C9.568 23.998 0.044 18.624 0.044 11.998c0-6.629 9.527-12 21.278-11.998 7.671 0.002 14.382 2.415 18.124 5.852-3.429-2.051-8.586-3.233-14.336-3.234-6.824 0-12.796 1.836-16.059 4.578 0.024-0.01 0.046-0.019 0.068-0.032 0.61-0.287 1.322-0.432 2.136-0.432 0.811 0 1.523 0.145 2.135 0.432 0.61 0.29 1.122 0.676 1.532 1.159 0.413 0.485 0.719 1.04 0.925 1.667 0.208 0.627 0.309 1.281 0.308 1.959 0 0.68-0.101 1.334-0.308 1.962-0.205 0.627-0.512 1.182-0.925 1.668-0.41 0.483-0.922 0.866-1.532 1.151-0.613 0.282-1.325 0.425-2.135 0.424-0.813 0-1.525-0.142-2.136-0.424a5.309 5.309 0 0 1-0.372-0.194m-0.837-3.095c0.135 0.49 0.345 0.929 0.632 1.32s0.654 0.705 1.105 0.943q0.673 0.355 1.608 0.355t1.607-0.355c0.449-0.239 0.818-0.553 1.105-0.943s0.497-0.83 0.63-1.32a5.55 5.55 0 0 0 0-2.973c-0.133-0.49-0.343-0.929-0.63-1.32s-0.656-0.707-1.105-0.944-0.985-0.357-1.607-0.357-1.158 0.121-1.608 0.357c-0.451 0.239-0.818 0.553-1.105 0.944s-0.497 0.83-0.632 1.32c-0.133 0.487-0.2 0.982-0.2 1.486 0 0.502 0.068 0.999 0.2 1.487m10.265-2.855v0.859h0.022c0.176-0.352 0.451-0.608 0.83-0.767 0.376-0.159 0.791-0.239 1.243-0.239 0.502 0 0.941 0.089 1.312 0.27 0.374 0.179 0.683 0.422 0.929 0.729 0.249 0.309 0.434 0.661 0.56 1.064 0.125 0.401 0.188 0.825 0.188 1.276s-0.06 0.876-0.181 1.277c-0.123 0.403-0.306 0.753-0.552 1.05-0.249 0.299-0.557 0.536-0.932 0.707-0.372 0.171-0.806 0.258-1.3 0.258-0.159 0-0.335-0.017-0.533-0.048a3.016 3.016 0 0 1-0.584-0.162 2.268 2.268 0 0 1-0.548-0.302 1.617 1.617 0 0 1-0.432-0.473h-0.022v3.28h-1.076v-8.779z m3.825 2.259c-0.08-0.282-0.2-0.536-0.365-0.756-0.162-0.222-0.372-0.398-0.627-0.528-0.253-0.13-0.553-0.195-0.895-0.196-0.36 0-0.664 0.068-0.915 0.208a1.834 1.834 0 0 0-0.615 0.545c-0.159 0.227-0.273 0.483-0.345 0.768-0.07 0.287-0.106 0.579-0.106 0.873 0 0.311 0.039 0.61 0.113 0.9 0.075 0.292 0.193 0.548 0.357 0.77 0.162 0.22 0.374 0.398 0.632 0.533q0.391 0.203 0.942 0.203c0.367 0 0.676-0.07 0.921-0.21a1.675 1.675 0 0 0 0.594-0.553c0.152-0.229 0.261-0.49 0.326-0.784 0.068-0.294 0.101-0.598 0.101-0.91 0-0.294-0.039-0.582-0.118-0.863m6.754 3.684c-0.485 0.36-1.098 0.541-1.836 0.541q-0.782 0-1.354-0.246c-0.384-0.164-0.705-0.393-0.965-0.688-0.258-0.294-0.454-0.647-0.584-1.057-0.13-0.408-0.203-0.854-0.22-1.337 0-0.483 0.075-0.927 0.227-1.327 0.15-0.401 0.362-0.75 0.635-1.045s0.598-0.524 0.97-0.688c0.374-0.162 0.784-0.244 1.23-0.243 0.579 0 1.059 0.116 1.443 0.35 0.381 0.234 0.688 0.531 0.92 0.892q0.347 0.539 0.477 1.18c0.089 0.427 0.125 0.832 0.109 1.219h-4.87c-0.01 0.277 0.024 0.541 0.099 0.792 0.077 0.249 0.198 0.471 0.365 0.661 0.169 0.193 0.381 0.345 0.642 0.461 0.261 0.113 0.565 0.171 0.917 0.171 0.451 0 0.823-0.104 1.112-0.309q0.431-0.308 0.572-0.934h1.057c-0.142 0.712-0.458 1.248-0.946 1.607m-0.261-4.073c-0.097-0.222-0.224-0.413-0.388-0.572a1.858 1.858 0 0 0-0.577-0.379c-0.222-0.094-0.468-0.142-0.734-0.142-0.277 0-0.526 0.048-0.748 0.142a1.713 1.713 0 0 0-0.571 0.386 1.93 1.93 0 0 0-0.377 0.57c-0.092 0.217-0.145 0.449-0.162 0.692h3.729a2.075 2.075 0 0 0-0.172-0.697m3.038-1.87v1.009h0.022c0.446-0.772 1.153-1.156 2.123-1.156 0.43 0 0.787 0.055 1.074 0.171s0.519 0.275 0.695 0.48c0.179 0.205 0.302 0.449 0.374 0.731 0.07 0.282 0.106 0.596 0.106 0.942v4.181h-1.076v-4.302q0-0.59-0.355-0.934c-0.234-0.229-0.557-0.345-0.97-0.345-0.328 0-0.61 0.051-0.851 0.15-0.239 0.097-0.439 0.236-0.599 0.417a1.81 1.81 0 0 0-0.359 0.632c-0.08 0.241-0.118 0.507-0.119 0.792v3.588h-1.078v-6.356z m11.843 6.288c-0.487 0.2-0.98 0.302-1.474 0.302-0.782 0-1.486-0.135-2.111-0.401s-1.151-0.632-1.581-1.1c-0.43-0.466-0.758-1.013-0.987-1.646-0.229-0.63-0.343-1.308-0.342-2.036 0-0.748 0.113-1.441 0.342-2.08 0.227-0.639 0.555-1.197 0.985-1.675 0.427-0.475 0.953-0.849 1.578-1.12 0.625-0.273 1.327-0.408 2.111-0.407 0.524 0 1.03 0.077 1.523 0.231 0.49 0.154 0.934 0.381 1.329 0.681 0.396 0.302 0.724 0.668 0.98 1.107 0.258 0.439 0.415 0.943 0.473 1.511h-2.145c-0.133-0.557-0.391-0.977-0.772-1.257-0.384-0.28-0.845-0.42-1.388-0.42-0.507 0-0.936 0.097-1.288 0.287s-0.639 0.449-0.859 0.77q-0.329 0.485-0.478 1.1-0.152 0.615-0.152 1.274c0 0.42 0.051 0.83 0.152 1.226 0.099 0.398 0.261 0.755 0.48 1.071 0.22 0.319 0.504 0.572 0.859 0.763 0.352 0.193 0.782 0.287 1.289 0.287 0.746 0 1.32-0.183 1.725-0.55 0.408-0.367 0.644-0.898 0.709-1.595h-2.258v-1.643h4.285v5.398h-1.426l-0.229-1.135c-0.401 0.504-0.845 0.857-1.33 1.057m6.627-9.91v8.127h4.978v1.853h-7.22V6.964zM57.956 16.023c0 0.169-0.041 0.323-0.125 0.468a0.939 0.939 0 0 1-0.811 0.468 0.939 0.939 0 0 1-0.811-0.468 0.941 0.941 0 0 1-0.125-0.468 0.939 0.939 0 0 1 0.468-0.811 0.941 0.941 0 0 1 0.468-0.126 0.939 0.939 0 0 1 0.811 0.468c0.084 0.145 0.125 0.302 0.125 0.469m-0.181 0c0-0.208-0.075-0.386-0.222-0.534a0.729 0.729 0 0 0-0.533-0.222c-0.208 0-0.386 0.075-0.533 0.222a0.729 0.729 0 0 0-0.222 0.534c0 0.208 0.075 0.386 0.222 0.533s0.326 0.222 0.533 0.222 0.386-0.075 0.533-0.222a0.729 0.729 0 0 0 0.222-0.533m-1.18-0.5h0.449c0.125 0 0.217 0.024 0.275 0.077 0.055 0.051 0.084 0.118 0.085 0.205q0 0.098-0.065 0.174c-0.043 0.048-0.111 0.084-0.205 0.106 0.039 0.014 0.068 0.031 0.084 0.046q0.04 0.036 0.08 0.101c0.002 0.005 0.055 0.101 0.161 0.29h-0.294c-0.094-0.191-0.159-0.304-0.191-0.34-0.034-0.039-0.068-0.055-0.099-0.056-0.007 0-0.017 0-0.031 0.003v0.393h-0.249z m0.249 0.425h0.109q0.109 0 0.152-0.036a0.111 0.111 0 0 0 0.043-0.09 0.121 0.121 0 0 0-0.041-0.091c-0.029-0.022-0.077-0.034-0.145-0.034h-0.118z"/></svg>